<?xml version="1.0" ?><!DOCTYPE svg  PUBLIC '-//W3C//DTD SVG 1.1//EN'  'http://www.w3.org/Graphics/SVG/1.1/DTD/svg11.dtd'><svg enable-background="new 0 0 91 91" height="91px" id="Layer_1" version="1.1" viewBox="0 0 91 91" width="91px" xml:space="preserve" xmlns="http://www.w3.org/2000/svg" xmlns:xlink="http://www.w3.org/1999/xlink"><g><g><g><path d="M45.455,58.417c0,3.343-2.71,6.052-6.049,6.052H20.213c-3.341,0-6.049-2.709-6.049-6.052V13.046     c0,0,1.648-10.7,15.644-10.7c13.926,0,15.647,10.7,15.647,10.7" fill="#F69B77"/><path d="M39.406,66.727H20.213c-4.582,0-8.307-3.727-8.307-8.31V12.874l0.025-0.169     c0.673-4.365,5.273-12.616,17.876-12.616c12.539,0,17.177,8.243,17.876,12.6c0.199,1.231-0.639,2.39-1.871,2.588     c-1.227,0.198-2.39-0.64-2.588-1.871c-0.061-0.344-1.688-8.802-13.417-8.802c-11.215,0-13.149,7.457-13.387,8.641v45.172     c0,2.093,1.701,3.794,3.792,3.794h19.193c2.09,0,3.79-1.701,3.79-3.794c0-1.246,1.011-2.257,2.259-2.257     c1.247,0,2.257,1.011,2.257,2.257C47.712,63,43.987,66.727,39.406,66.727z" fill="#434B56"/></g><g><path d="M45.455,13.046c0,0,1.646-10.7,15.642-10.7c13.926,0,15.646,10.7,15.646,10.7v45.371     c0,3.343-2.709,6.052-6.047,6.052H51.503c-3.34,0-6.048-2.709-6.048-6.052" fill="#F69B77"/><path d="M70.695,66.727H51.503c-4.58,0-8.307-3.727-8.307-8.31c0-1.246,1.011-2.257,2.259-2.257     c1.247,0,2.257,1.011,2.257,2.257c0,2.093,1.701,3.794,3.791,3.794h19.192c2.09,0,3.789-1.701,3.789-3.794V13.264     c-0.259-1.167-2.345-8.66-13.388-8.66c-11.923,0-13.354,8.427-13.411,8.787c-0.188,1.232-1.335,2.084-2.575,1.888     c-1.232-0.188-2.079-1.341-1.888-2.574c0.67-4.363,5.269-12.616,17.874-12.616c12.537,0,17.175,8.243,17.873,12.6l0.029,0.357     v45.371C78.999,63,75.273,66.727,70.695,66.727z" fill="#434B56"/></g><g><path d="M34.177,64.664v20.569c0,1.885-1.532,3.416-3.417,3.416h-1.905c-1.887,0-3.417-1.531-3.417-3.416V64.664     H34.177z" fill="#E4E4E6"/><path d="M30.761,90.907h-1.905c-3.129,0-5.676-2.546-5.676-5.674V62.407h13.255v22.826     C36.435,88.361,33.89,90.907,30.761,90.907z M27.697,66.923v18.311c0,0.638,0.519,1.158,1.159,1.158h1.905     c0.638,0,1.157-0.521,1.157-1.158V66.923H27.697z" fill="#434B56"/></g><g><path d="M65.466,64.664v20.569c0,1.885-1.531,3.416-3.414,3.416h-1.903c-1.889,0-3.419-1.531-3.419-3.416V64.664     H65.466z" fill="#E4E4E6"/><path d="M62.052,90.907h-1.903c-3.132,0-5.676-2.546-5.676-5.674V62.407h13.251v22.826     C67.724,88.361,65.179,90.907,62.052,90.907z M58.989,66.923v18.311c0,0.638,0.519,1.158,1.159,1.158h1.903     c0.637,0,1.154-0.521,1.154-1.158V66.923H58.989z" fill="#434B56"/></g><path d="M45.455,49.318c-1.249,0-2.259-1.012-2.259-2.259V23.938c0-1.248,1.011-2.258,2.259-2.258    c1.247,0,2.257,1.01,2.257,2.258V47.06C47.712,48.307,46.702,49.318,45.455,49.318z" fill="#434B56"/><path d="M23.242,19.568c-0.113,0-0.226-0.008-0.338-0.025c-1.235-0.185-2.085-1.335-1.898-2.569    c0.031-0.204,0.811-5.059,5.635-8.028c1.062-0.652,2.454-0.325,3.107,0.739c0.653,1.062,0.323,2.454-0.739,3.107    c-3.01,1.851-3.533,4.824-3.539,4.854C25.303,18.765,24.34,19.568,23.242,19.568z" fill="#FFFFFF"/><path d="M23.238,26.195c-1.348,0-2.444-1.097-2.444-2.443c0-1.345,1.097-2.438,2.444-2.438    c1.345,0,2.44,1.093,2.44,2.438C25.678,25.098,24.583,26.195,23.238,26.195z" fill="#FFFFFF"/></g></g></svg>