<?xml version="1.0" ?><!DOCTYPE svg  PUBLIC '-//W3C//DTD SVG 1.1//EN'  'http://www.w3.org/Graphics/SVG/1.1/DTD/svg11.dtd'><svg enable-background="new 0 0 91 91" height="91px" id="Layer_1" version="1.1" viewBox="0 0 91 91" width="91px" xml:space="preserve" xmlns="http://www.w3.org/2000/svg" xmlns:xlink="http://www.w3.org/1999/xlink"><g><g><g><path d="M51.052,11.295c-0.059-3.323,1.186-6.661,1.977-8.414h-2.012c-2.006,0.306-3.807,4.894-4.624,8.249     c0.037,0,0.074-0.004,0.111-0.004C48.046,11.126,49.56,11.188,51.052,11.295z" fill="#B08C7E"/><path d="M25.662,74.766l0.332-0.326c0.301-0.288,0.714-0.685,0.72-0.9c0.008-0.181-0.228-0.532-1.394-1.195     l-4.531-2.598c-0.271-0.152-0.434-0.443-0.426-0.753c0.01-0.311,0.188-0.594,0.465-0.73c1.804-0.909,3.56-1.875,5.235-2.882     c-2.79-0.681-7.556-2.01-8.199-3.265c-0.159-0.309-0.171-0.646-0.036-0.952c0.224-0.495,0.705-0.808,4.935-2.738     c0.619-0.283,1.313-0.602,1.877-0.866c-1.194-0.589-3.192-1.443-4.539-2.018c-3.356-1.436-3.492-1.523-3.696-1.867     c-0.123-0.212-0.161-0.562-0.082-0.793c0.218-0.648,0.989-0.985,3.388-1.958c1.18-0.479,2.909-1.179,4.032-1.825     c-3.102-1.084-8.272-3.417-8.671-4.234c-0.101-0.206-0.114-0.512-0.036-0.728c0.246-0.672,1.225-1.259,7.635-4.105     c1.186-0.524,2.487-1.103,3.182-1.442c-0.549-0.515-1.813-1.32-2.63-1.84c-2.526-1.61-3.834-2.501-3.61-3.661     c0.251-1.293,2.354-2.034,6.759-3.31c1.093-0.315,2.226-0.644,2.583-0.826c0.187-0.098,0.298-0.167,0.365-0.214     c-0.194-0.185-0.623-0.45-0.899-0.619c-0.912-0.559-2.044-1.256-1.92-2.45c0.102-1.027,1.158-1.765,2.183-2.481     c0.436-0.304,0.887-0.623,1.091-0.854c0.302-0.347,0.369-0.903,0.45-1.545c0.082-0.681,0.177-1.453,0.612-2.122     c1.017-1.568,2.212-3.268,3.832-4.729c-6.268,1.217-12.036,3.404-16.853,6.441C11.142,24.595,6.258,33.319,4.419,44.321     c-2.038,12.188,0.239,24.538,5.799,31.464c3.118,3.885,8.975,7.051,16.28,9.089c-1.28-1.356-2.185-2.958-2.495-4.607     C23.618,78.203,24.205,76.25,25.662,74.766z" fill="#ACD263"/><path d="M45.294,74.643c0.418-0.301,0.864-0.571,1.309-0.843c0.463-0.278,0.903-0.545,1.298-0.84     c-0.548-0.361-1.396-0.879-2.123-1.323c-2.023-1.238-4.544-2.778-5.824-3.928c-0.218-0.198-0.318-0.494-0.265-0.785     c0.055-0.289,0.255-0.528,0.532-0.633c2.474-0.935,5.053-1.679,7.697-2.218c-0.604-0.305-1.284-0.634-1.956-0.958     c-4.16-2.017-6.716-3.339-7.102-4.746c-0.061-0.223-0.03-0.46,0.09-0.658c0.118-0.198,0.313-0.34,0.54-0.391     c4.186-0.94,8.885-2.197,11.21-3.039c-3.899-1.358-11.047-4.468-11.212-5.62c-0.141-0.938,0.487-1.135,4.572-2.413     c2.265-0.708,5.025-1.57,6.726-2.357c-0.929-0.389-2.335-0.933-3.546-1.404c-6.484-2.519-7.202-2.914-7.452-3.506     c-0.086-0.212-0.088-0.497,0.002-0.707c0.177-0.426,0.192-0.459,4.449-2.291c1.557-0.669,3.896-1.676,5.171-2.308     c-0.818-0.464-2.396-1.288-5.426-2.756c-0.55-0.268-1.3-0.634-1.668-1.349c-0.538-1.07,0.597-1.945,2.165-3.157     c0.744-0.573,2.291-1.769,2.338-2.241c-0.037-0.368-0.231-0.721-0.458-1.133c-0.378-0.688-0.849-1.543-0.572-2.719     c0.137-0.583,0.471-1.329,0.855-2.195c0.752-1.684,1.864-4.197,1.16-5.285c-0.434-0.008-0.863-0.025-1.301-0.025     c-2.782,0-5.523,0.187-8.198,0.538c-0.064,0.083-0.147,0.155-0.245,0.21c-2.721,1.494-4.423,3.893-5.807,6.022     c-0.224,0.344-0.285,0.86-0.354,1.408c-0.096,0.801-0.208,1.708-0.85,2.45c-0.344,0.391-0.856,0.75-1.398,1.129     c-0.489,0.341-1.401,0.979-1.473,1.278c0.067,0.181,0.756,0.603,1.125,0.831c0.881,0.542,2.357,1.449,1.566,2.827     c-0.269,0.451-0.707,0.72-1.143,0.944c-0.481,0.248-1.412,0.522-2.888,0.949c-1.551,0.449-4.645,1.344-5.458,1.967     c0.452,0.497,1.863,1.396,2.746,1.957c2.17,1.384,3.408,2.213,3.612,3.174c0.073,0.33,0.01,0.664-0.168,0.938     c-0.222,0.335-0.472,0.477-4.215,2.138c-1.861,0.828-4.713,2.092-6.094,2.847c1.82,0.981,6.088,2.956,8.416,3.51     c0.265,0.063,0.485,0.254,0.586,0.506c0.103,0.254,0.073,0.543-0.074,0.774c-0.738,1.145-2.892,2.08-5.85,3.278     c-0.509,0.205-1.08,0.438-1.557,0.644c0.595,0.263,1.329,0.577,1.979,0.855c6.028,2.576,6.556,2.901,6.297,3.864     c-0.131,0.509-0.267,0.589-3.597,2.108c-1.062,0.486-2.654,1.211-3.564,1.689c1.594,0.773,5.846,1.985,8.524,2.54     c0.337,0.071,0.596,0.338,0.659,0.674c0.061,0.338-0.086,0.68-0.375,0.864c-1.82,1.164-3.742,2.276-5.734,3.327l3.182,1.823     c0.801,0.455,2.295,1.308,2.244,2.718c-0.032,0.9-0.701,1.544-1.238,2.063l-0.297,0.291c-1.356,1.382-1.401,2.938-1.203,4.004     c0.438,2.335,2.444,4.684,5.016,5.917c3.647,0.748,7.55,1.236,11.596,1.416C41.468,84.028,41.774,77.192,45.294,74.643z" fill="#85986F"/><path d="M61.227,81.054c0.146-0.463,0.103-1.05,0.057-1.671c-0.063-0.848-0.126-1.724,0.246-2.548     c0.677-1.499,2.769-2.522,4.475-3.072c-3.005-3.852-2.722-4.326-2.447-4.785c0.161-0.264,0.326-0.357,1.616-1.092     c1.179-0.671,4.608-2.623,5.351-3.531c-0.352-0.348-1.156-1.01-1.774-1.521c-2.774-2.282-3.729-3.166-3.521-4.094     c0.096-0.444,0.4-0.65,1.536-1.406c1.575-1.046,4.646-3.092,5.573-5.063c-1.299-0.288-2.175-0.572-3.095-0.871     c-0.788-0.255-1.634-0.532-2.852-0.845c-0.508-0.129-1.2-0.308-1.662-0.826c-0.308-0.354-0.45-0.774-0.41-1.222     c0.058-0.689,0.536-1.391,1.459-2.145c1.953-1.59,3.675-3.348,5.125-5.224c-0.736-0.805-4.203-2.468-5.852-2.96     c-0.257-0.073-0.804-0.233-1.131-0.677c-0.292-0.42-0.579-1.252,0.677-2.291c1.471-1.217,2.772-2.565,3.865-4.004     c0.061-0.079,0.113-0.147,0.152-0.205c-0.468-0.278-1.473-0.671-2.06-0.899c-1.025-0.4-1.62-0.64-1.956-0.915     c-1.356-1.107-0.898-2.67-0.566-3.813c0.111-0.385,0.227-0.77,0.272-1.139c0.112-0.948-0.556-2.65-1.201-4.297     c-0.736-1.882-1.428-3.672-1.385-5.129c-3.717-1.042-7.793-1.696-12.098-1.908c0.393,1.769-0.591,4.022-1.433,5.913     c-0.338,0.751-0.656,1.464-0.757,1.895c-0.121,0.516,0.067,0.895,0.409,1.517c0.275,0.499,0.586,1.066,0.658,1.792     c0.137,1.319-1.381,2.493-2.987,3.732c-0.489,0.379-1.182,0.915-1.5,1.25c0.201,0.151,0.502,0.298,0.708,0.398     c6.724,3.255,6.832,3.573,6.985,4.011c0.348,0.984-0.033,1.213-6.799,4.125c-0.871,0.375-1.859,0.798-2.612,1.138     c1.401,0.626,3.803,1.557,5.556,2.238c5.235,2.033,5.335,2.073,5.321,2.831c-0.01,0.817-0.778,1.229-1.032,1.363     c-1.737,0.932-4.975,1.943-7.576,2.756c-0.831,0.261-1.775,0.555-2.505,0.803c2.352,1.28,7.74,3.836,10.915,4.555     c0.373,0.084,0.644,0.41,0.657,0.791c0.025,0.667,0.069,1.771-12.394,4.647c1.286,0.916,3.891,2.177,5.462,2.938     c2.153,1.043,3.508,1.712,4.152,2.266c0.25,0.214,0.352,0.554,0.264,0.87c-0.091,0.315-0.357,0.551-0.682,0.604     c-2.808,0.446-5.558,1.126-8.194,2.026c1.265,0.907,2.972,1.951,4.419,2.837c3.043,1.859,3.434,2.096,3.289,2.848     c-0.093,0.468-0.429,0.765-0.59,0.907c-0.585,0.511-1.243,0.907-1.878,1.294c-0.407,0.245-0.815,0.493-1.196,0.768     c-2.648,1.916-3.219,7.966-2.31,11.108c0.02,0.073,0.016,0.146,0.016,0.215c0.577,0.014,1.15,0.033,1.731,0.033     c3.123,0,6.119-0.202,8.967-0.571C58.496,85.255,60.463,83.533,61.227,81.054z" fill="#ACD263"/><path d="M77.274,23.708c-3.235-3.655-8.051-6.514-13.854-8.385c0.122,1.098,0.715,2.617,1.257,4.001     c0.754,1.924,1.467,3.744,1.301,5.11c-0.055,0.481-0.193,0.954-0.325,1.412c-0.363,1.245-0.406,1.688,0.018,2.036     c0.173,0.131,0.938,0.43,1.496,0.647c1.912,0.745,3.292,1.282,3.243,2.346c-0.027,0.563-0.328,0.995-0.605,1.356     c-1.169,1.539-2.562,2.98-4.134,4.28c-0.029,0.023-0.055,0.047-0.08,0.068c0.677,0.236,6.407,2.291,7.025,4.176     c0.133,0.41,0.064,0.834-0.186,1.164c-1.567,2.073-3.446,4.009-5.586,5.752c-0.803,0.655-0.847,0.976-0.847,0.976     c0.111,0.092,0.586,0.216,0.813,0.273c1.26,0.323,2.136,0.605,2.95,0.873c1.119,0.36,2.083,0.675,3.814,1.009     c0.445,0.084,0.744,0.508,0.676,0.96c-0.456,2.919-4.42,5.56-6.552,6.978c-0.197,0.133-0.411,0.273-0.589,0.396     c0.567,0.632,1.921,1.745,2.711,2.396c1.532,1.26,2.132,1.778,2.358,2.212c0.732,1.389-1.222,2.792-6.175,5.609     c-0.288,0.164-0.541,0.306-0.739,0.422c0.383,0.685,1.378,2.104,2.854,3.938c0.184,0.228,0.236,0.536,0.139,0.812     c-0.099,0.275-0.332,0.48-0.621,0.543c-1.882,0.402-4.104,1.433-4.567,2.46c-0.197,0.434-0.151,1.065-0.103,1.733     c0.053,0.714,0.11,1.524-0.128,2.293c-0.582,1.889-1.731,3.29-3.094,4.369c7.468-1.648,13.449-4.646,16.96-8.69     C88.14,64.067,93.197,41.703,77.274,23.708z" fill="#85986F"/></g><g><path d="M45.72,90.844c-13.789,0-30.866-3.941-37.938-12.75c-6.186-7.703-8.653-20.709-6.443-33.936     C3.324,32.281,8.724,22.779,16.15,18.091c8.228-5.188,19.006-8.046,30.354-8.046c14.114,0,26.493,4.466,33.11,11.947     c17.168,19.403,11.749,43.482-0.552,57.643C72.878,86.758,60.724,90.844,45.72,90.844z M46.504,14.605     c-10.497,0-20.413,2.607-27.919,7.342C12.254,25.942,7.607,34.313,5.836,44.91c-1.975,11.804,0.187,23.71,5.5,30.33     c5.222,6.504,19.362,11.046,34.384,11.046c13.483,0,24.661-3.604,29.902-9.64C86.66,63.938,91.548,42.359,76.2,25.013     C70.434,18.496,59.332,14.605,46.504,14.605z" fill="#434B56"/><path d="M43.161,89.99c-0.99,0-1.902-0.65-2.189-1.647c-0.967-3.35-0.948-11.301,3.481-14.509     c0.255-0.183,0.508-0.352,0.759-0.509c-0.061-0.037-0.121-0.074-0.18-0.109c-2.075-1.269-4.658-2.847-6.037-4.088     c-0.591-0.531-0.862-1.333-0.714-2.116c0.145-0.781,0.689-1.431,1.435-1.712c1.311-0.494,2.654-0.938,4.018-1.326     c-3.942-1.958-5.783-3.154-6.256-4.871c-0.165-0.601-0.076-1.242,0.244-1.778c0.32-0.534,0.846-0.915,1.455-1.05     c2.519-0.567,5.023-1.198,7.102-1.774c-0.854-0.367-1.623-0.717-2.228-1c-5.756-2.689-5.827-3.188-5.981-4.283     c-0.32-2.146,1.162-2.609,5.565-3.985c0.974-0.304,2.097-0.655,3.182-1.019c-0.031-0.012-0.061-0.024-0.093-0.036     c-7.063-2.743-7.757-3.104-8.254-4.29c-0.24-0.569-0.24-1.258,0.004-1.828c0.408-0.981,0.679-1.098,5.204-3.045     c0.715-0.306,1.608-0.691,2.481-1.076c-0.749-0.375-1.669-0.829-2.799-1.378c-0.652-0.316-1.731-0.842-2.317-1.982     c-1.082-2.136,0.938-3.694,2.562-4.949c0.448-0.346,1.189-0.919,1.615-1.331c-0.039-0.077-0.08-0.149-0.115-0.214     c-0.418-0.758-1.117-2.028-0.71-3.742c0.167-0.712,0.526-1.518,0.942-2.45c0.439-0.985,1.47-3.296,1.252-3.983     c-0.783-0.987-0.595-2.379,0.391-3.163c0.985-0.781,2.444-0.579,3.225,0.406c2.005,2.523,0.438,6.033-0.706,8.596     c-0.265,0.599-0.597,1.341-0.668,1.638c0.018,0.043,0.17,0.318,0.27,0.499c0.307,0.558,0.727,1.321,0.831,2.338     c0.205,2.034-1.55,3.475-3.324,4.849c6.017,2.945,6.137,3.296,6.456,4.223c0.757,2.136-1.352,3.117-3.211,3.981     c-1.115,0.521-2.546,1.141-3.875,1.714c0.852,0.335,1.702,0.667,2.399,0.938c5.788,2.248,6.261,2.43,6.233,4.184     c-0.01,0.759-0.33,1.829-1.79,2.61c-1.667,0.895-4.393,1.784-6.954,2.588c2.45,1.15,5.457,2.413,7.429,2.86     c1.005,0.229,1.733,1.104,1.774,2.134c0.059,1.547,0.104,2.72-9.97,5.254c0.809,0.41,1.613,0.798,2.232,1.099     c2.324,1.125,3.677,1.794,4.458,2.464c0.676,0.579,0.95,1.495,0.709,2.352c-0.242,0.854-0.958,1.49-1.836,1.629     c-1.722,0.275-3.422,0.639-5.086,1.093c0.634,0.396,1.269,0.783,1.835,1.13c3.291,2.01,4.284,2.617,3.948,4.347     c-0.187,0.942-0.808,1.495-1.042,1.704c-0.693,0.603-1.436,1.054-2.091,1.45c-0.375,0.227-0.75,0.451-1.1,0.703     c-2.032,1.47-2.535,6.912-1.773,9.55c0.35,1.21-0.348,2.472-1.559,2.821C43.583,89.96,43.369,89.99,43.161,89.99z" fill="#434B56"/><path d="M54.884,90.265c-0.905,0-1.763-0.542-2.118-1.434c-0.468-1.169,0.103-2.497,1.27-2.964     c3.447-1.376,5.189-2.836,5.821-4.884c0.063-0.207,0.025-0.727-0.004-1.143c-0.068-0.931-0.153-2.087,0.367-3.243     c0.655-1.451,2.101-2.456,3.502-3.123c-1.969-2.738-2.063-3.768-1.397-4.88c0.361-0.594,0.667-0.766,2.138-1.603     c0.756-0.43,2.589-1.472,3.832-2.319c-0.16-0.131-0.314-0.258-0.457-0.378c-2.854-2.348-4.424-3.642-4.012-5.512     c0.219-1.008,0.862-1.436,2.144-2.29c0.803-0.533,2.681-1.784,3.946-3.021c-0.385-0.118-0.748-0.235-1.119-0.355     c-0.781-0.255-1.59-0.519-2.762-0.816c-0.612-0.159-1.631-0.422-2.381-1.27c-0.567-0.65-0.837-1.461-0.767-2.294     c0.093-1.097,0.743-2.122,1.985-3.132c1.456-1.19,2.779-2.475,3.947-3.831c-1.246-0.711-3.199-1.575-4.182-1.867     c-0.365-0.108-1.26-0.367-1.874-1.206c-0.185-0.263-1.477-2.265,0.917-4.244c0.963-0.796,1.847-1.65,2.644-2.552     c-0.105-0.042-0.203-0.081-0.29-0.114c-1.195-0.467-1.844-0.73-2.348-1.147c-2.087-1.7-1.374-4.146-1.032-5.32     c0.098-0.335,0.197-0.681,0.225-0.905c0.062-0.518-0.344-1.37-0.732-2.193c-0.696-1.472-1.563-3.302-0.965-5.412     c0.344-1.211,1.604-1.912,2.815-1.57c1.211,0.344,1.913,1.604,1.569,2.815c-0.131,0.461,0.291,1.353,0.699,2.216     c0.605,1.274,1.356,2.86,1.141,4.68c-0.07,0.598-0.233,1.154-0.375,1.643c-0.053,0.183-0.121,0.417-0.168,0.615     c0.258,0.108,0.58,0.233,0.827,0.33c2.186,0.854,4.248,1.659,4.154,3.749c-0.057,1.066-0.626,1.808-0.901,2.166     c-0.789,1.036-1.672,2.032-2.64,2.972c2.157,0.919,5.096,2.461,5.675,4.232c0.283,0.862,0.136,1.765-0.402,2.478     c-1.394,1.842-3.021,3.576-4.851,5.175c0.558,0.165,1.034,0.32,1.479,0.465c1.115,0.363,1.997,0.648,3.643,0.965     c1.205,0.231,2.01,1.376,1.821,2.589c-0.462,2.963-3.342,5.332-6.259,7.336c0.47,0.402,0.965,0.812,1.324,1.106     c1.661,1.369,2.351,1.954,2.718,2.659c1.434,2.715-1.835,4.725-6.151,7.187c0.488,0.69,1.155,1.574,1.935,2.542     c0.499,0.614,0.641,1.445,0.376,2.191c-0.264,0.747-0.897,1.304-1.671,1.468c-1.813,0.389-3.328,1.245-3.57,1.663     c-0.035,0.131,0.004,0.668,0.029,1.022c0.059,0.801,0.131,1.799-0.189,2.825c-1.366,4.426-5.251,6.476-8.482,7.768     C55.451,90.214,55.164,90.265,54.884,90.265z" fill="#434B56"/><path d="M30.526,89.376c-0.314,0-0.632-0.065-0.938-0.203c-3.61-1.631-6.356-4.884-6.994-8.289     c-0.475-2.537,0.249-4.941,2.042-6.77c0.033-0.031,0.067-0.064,0.1-0.099c-0.042-0.023-0.083-0.049-0.127-0.072l-4.531-2.597     c-0.728-0.417-1.169-1.202-1.146-2.04c0.023-0.841,0.504-1.598,1.254-1.975c0.714-0.359,1.419-0.727,2.114-1.104     c-2.756-0.846-5.088-1.892-5.711-3.105c-0.355-0.691-0.383-1.488-0.072-2.187c0.432-0.954,1.099-1.368,4.672-3.014     c-0.605-0.263-1.184-0.51-1.649-0.709c-3.536-1.511-3.905-1.668-4.37-2.46c-0.335-0.568-0.416-1.351-0.206-1.978     c0.44-1.304,1.543-1.749,4.209-2.829c0.265-0.108,0.589-0.24,0.942-0.385c-2.788-1.155-5.805-2.637-6.331-3.716     c-0.272-0.556-0.306-1.268-0.092-1.85c0.461-1.267,1.404-1.818,8.402-4.926c0.294-0.129,0.604-0.267,0.913-0.404     c-0.198-0.128-0.387-0.249-0.554-0.355c-2.607-1.66-4.666-2.972-4.246-5.143c0.424-2.191,3.089-3.063,7.764-4.415     c0.09-0.026,0.183-0.053,0.278-0.081c-0.71-0.654-1.303-1.555-1.175-2.797c0.171-1.678,1.621-2.693,2.789-3.51     c0.287-0.2,0.723-0.504,0.844-0.631c0.008-0.056,0.059-0.483,0.094-0.766c0.092-0.752,0.218-1.782,0.833-2.73     c1.708-2.628,3.73-5.304,6.924-7.059c1.101-0.607,2.489-0.205,3.094,0.901c0.606,1.103,0.204,2.489-0.899,3.094     c-2.426,1.333-4.004,3.563-5.294,5.548c-0.045,0.104-0.098,0.522-0.131,0.798c-0.11,0.906-0.262,2.145-1.19,3.218     c-0.461,0.524-1.062,0.946-1.646,1.354c2.001,1.37,2.548,2.878,1.626,4.484c-0.463,0.781-1.133,1.198-1.731,1.506     c-0.601,0.31-1.492,0.573-3.147,1.052c-0.756,0.218-1.947,0.563-2.994,0.913c0.235,0.153,0.463,0.296,0.658,0.42     c2.268,1.445,3.904,2.489,4.246,4.083c0.151,0.711,0.018,1.432-0.377,2.03c-0.481,0.73-0.893,0.913-4.83,2.66     c-0.926,0.412-2.22,0.986-3.416,1.538c1.863,0.858,4.095,1.78,5.487,2.112c0.719,0.17,1.311,0.681,1.586,1.366     c0.277,0.688,0.202,1.464-0.2,2.087c-0.803,1.246-2.481,2.14-4.917,3.172c5.276,2.266,6.537,2.956,5.968,5.066     c-0.307,1.177-0.772,1.389-4.382,3.037c-0.14,0.063-0.289,0.132-0.444,0.202c1.649,0.501,3.583,1.005,5.094,1.319     c0.907,0.188,1.61,0.909,1.778,1.819c0.167,0.911-0.233,1.835-1.015,2.335c-1.15,0.733-2.342,1.45-3.565,2.146l0.956,0.548     c0.909,0.518,3.045,1.739,2.964,4.014c-0.049,1.48-1.031,2.423-1.681,3.048c-0.09,0.086-0.181,0.172-0.265,0.258     c-0.752,0.769-1.019,1.661-0.817,2.737c0.359,1.926,2.165,3.97,4.39,4.974c1.148,0.52,1.657,1.87,1.14,3.016     C32.224,88.874,31.394,89.376,30.526,89.376z" fill="#434B56"/><path d="M45.361,14.505c-0.149,0-0.302-0.014-0.456-0.046c-1.233-0.251-2.03-1.454-1.78-2.687     c0.518-2.544,2.589-10.901,7.559-11.637c0.109-0.016,0.221-0.023,0.333-0.023h3.364c0.806,0,1.552,0.424,1.962,1.119     c0.41,0.693,0.424,1.551,0.035,2.258c-0.021,0.043-2.481,4.599-2.198,8.577c0.088,1.256-0.858,2.346-2.114,2.434     c-1.265,0.088-2.347-0.857-2.435-2.112c-0.187-2.645,0.455-5.333,1.168-7.405c-1.092,1.07-2.55,4.468-3.206,7.697     C47.373,13.759,46.424,14.505,45.361,14.505z" fill="#434B56"/></g></g></g></svg>